<svg xmlns="http://www.w3.org/2000/svg" xmlns:xlink="http://www.w3.org/1999/xlink" width="2000" zoomAndPan="magnify" viewBox="0 0 1500 749.999995" height="1000" preserveAspectRatio="xMidYMid meet" version="1.0"><defs><g/><clipPath id="c8b90e5a7c"><rect x="0" width="944" y="0" height="378"/></clipPath><clipPath id="92dbc14fd3"><rect x="0" width="1029" y="0" height="109"/></clipPath></defs><path fill="#000000" d="M 185 340.453125 L 660.367188 32.917969 C 660.367188 32.917969 1135.730469 340.453125 1135.730469 340.453125 C 1140.648438 343.636719 1147.230469 342.226562 1150.414062 337.308594 C 1153.597656 332.386719 1152.1875 325.804688 1147.261719 322.625 C 1147.261719 322.625 666.132812 11.363281 666.132812 11.363281 C 662.625 9.089844 658.105469 9.089844 654.601562 11.363281 C 654.601562 11.363281 173.46875 322.625 173.46875 322.625 C 168.550781 325.804688 167.140625 332.386719 170.324219 337.308594 C 173.507812 342.226562 180.082031 343.636719 185 340.453125 Z M 185 340.453125 " fill-opacity="1" fill-rule="evenodd"/><path fill="#000000" d="M 777.890625 95.804688 L 865.328125 39.230469 C 865.328125 39.230469 1314.757812 334.066406 1314.757812 334.066406 C 1319.65625 337.285156 1326.246094 335.917969 1329.460938 331.011719 C 1332.671875 326.113281 1331.304688 319.53125 1326.40625 316.3125 C 1326.40625 316.3125 871.195312 17.683594 871.195312 17.683594 C 867.679688 15.375 863.136719 15.359375 859.605469 17.640625 C 859.605469 17.640625 820.894531 42.6875 766.355469 77.972656 C 761.4375 81.15625 760.019531 87.730469 763.210938 92.65625 C 766.390625 97.578125 772.972656 98.984375 777.890625 95.804688 Z M 777.890625 95.804688 " fill-opacity="1" fill-rule="evenodd"/><path fill="#000000" d="M 443.207031 163.871094 L 443.207031 83.675781 C 443.207031 77.847656 438.457031 73.105469 432.625 73.105469 L 344.167969 73.105469 C 338.296875 73.105469 333.585938 77.847656 333.585938 83.675781 L 333.585938 224.835938 C 333.585938 230.664062 338.296875 235.402344 344.167969 235.402344 C 350.003906 235.402344 354.753906 230.664062 354.753906 224.835938 L 354.753906 94.246094 C 354.753906 94.246094 422.039062 94.246094 422.039062 94.246094 L 422.039062 163.871094 C 422.039062 169.699219 426.789062 174.441406 432.625 174.441406 C 438.457031 174.441406 443.207031 169.699219 443.207031 163.871094 Z M 443.207031 163.871094 " fill-opacity="1" fill-rule="evenodd"/><g transform="matrix(1, 0, 0, 1, 278, 331)"><g clip-path="url(#c8b90e5a7c)"><g fill="#000000" fill-opacity="1"><g transform="translate(2.633771, 283.249259)"><g><path d="M 151.578125 -210.53125 L 210.53125 -210.53125 C 212.726562 -210.53125 214.628906 -209.726562 216.234375 -208.125 C 217.835938 -206.519531 218.640625 -204.613281 218.640625 -202.40625 L 218.640625 -8.125 C 218.640625 -5.914062 217.835938 -4.007812 216.234375 -2.40625 C 214.628906 -0.800781 212.726562 0 210.53125 0 L 151.578125 0 C 149.367188 0 147.460938 -0.800781 145.859375 -2.40625 C 144.253906 -4.007812 143.453125 -5.914062 143.453125 -8.125 L 143.453125 -73.078125 L 94.734375 -73.078125 L 94.734375 -8.125 C 94.734375 -5.914062 93.929688 -4.007812 92.328125 -2.40625 C 90.722656 -0.800781 88.816406 0 86.609375 0 L 27.671875 0 C 25.460938 0 23.554688 -0.75 21.953125 -2.25 C 20.347656 -3.757812 19.546875 -5.71875 19.546875 -8.125 L 19.546875 -202.40625 C 19.546875 -204.613281 20.347656 -206.519531 21.953125 -208.125 C 23.554688 -209.726562 25.460938 -210.53125 27.671875 -210.53125 L 86.609375 -210.53125 C 88.816406 -210.53125 90.722656 -209.726562 92.328125 -208.125 C 93.929688 -206.519531 94.734375 -204.613281 94.734375 -202.40625 L 94.734375 -139.25 L 143.453125 -139.25 L 143.453125 -202.40625 C 143.453125 -204.613281 144.253906 -206.519531 145.859375 -208.125 C 147.460938 -209.726562 149.367188 -210.53125 151.578125 -210.53125 Z M 151.578125 -210.53125 "/></g></g></g><g fill="#000000" fill-opacity="1"><g transform="translate(240.805795, 283.249259)"><g><path d="M 41.046875 -191.265625 C 59.398438 -206.109375 83.710938 -213.53125 113.984375 -213.53125 C 144.253906 -213.53125 168.5625 -206.0625 186.90625 -191.125 C 205.257812 -176.1875 214.4375 -155.1875 214.4375 -128.125 L 214.4375 -81.203125 C 214.4375 -53.734375 205.363281 -32.832031 187.21875 -18.5 C 169.070312 -4.164062 144.660156 3 113.984375 3 C 83.304688 3 58.894531 -4.164062 40.75 -18.5 C 22.601562 -32.832031 13.53125 -53.734375 13.53125 -81.203125 L 13.53125 -128.125 C 13.53125 -155.382812 22.703125 -176.429688 41.046875 -191.265625 Z M 97.75 -61.65625 C 101.757812 -57.644531 107.171875 -55.640625 113.984375 -55.640625 C 120.796875 -55.640625 126.207031 -57.644531 130.21875 -61.65625 C 134.226562 -65.664062 136.234375 -71.78125 136.234375 -80 L 136.234375 -130.53125 C 136.234375 -138.550781 134.226562 -144.613281 130.21875 -148.71875 C 126.207031 -152.832031 120.796875 -154.890625 113.984375 -154.890625 C 107.171875 -154.890625 101.757812 -152.832031 97.75 -148.71875 C 93.738281 -144.613281 91.734375 -138.550781 91.734375 -130.53125 L 91.734375 -80 C 91.734375 -71.78125 93.738281 -65.664062 97.75 -61.65625 Z M 97.75 -61.65625 "/></g></g></g><g fill="#000000" fill-opacity="1"><g transform="translate(468.753193, 283.249259)"><g><path d="M 188.265625 -210.53125 L 235.78125 -210.53125 C 237.988281 -210.53125 239.894531 -209.726562 241.5 -208.125 C 243.101562 -206.519531 243.90625 -204.613281 243.90625 -202.40625 L 243.90625 -8.125 C 243.90625 -5.914062 243.101562 -4.007812 241.5 -2.40625 C 239.894531 -0.800781 237.988281 0 235.78125 0 L 181.359375 0 C 179.148438 0 177.242188 -0.800781 175.640625 -2.40625 C 174.035156 -4.007812 173.234375 -5.914062 173.234375 -8.125 L 173.234375 -90.53125 L 153.375 -58.046875 C 150.175781 -53.035156 146.46875 -50.53125 142.25 -50.53125 L 121.203125 -50.53125 C 116.992188 -50.53125 113.285156 -53.035156 110.078125 -58.046875 L 90.21875 -90.53125 L 90.21875 -8.125 C 90.21875 -5.914062 89.414062 -4.007812 87.8125 -2.40625 C 86.207031 -0.800781 84.304688 0 82.109375 0 L 27.671875 0 C 25.460938 0 23.554688 -0.800781 21.953125 -2.40625 C 20.347656 -4.007812 19.546875 -5.914062 19.546875 -8.125 L 19.546875 -202.40625 C 19.546875 -204.613281 20.347656 -206.519531 21.953125 -208.125 C 23.554688 -209.726562 25.460938 -210.53125 27.671875 -210.53125 L 75.1875 -210.53125 C 80.800781 -210.53125 85.113281 -207.820312 88.125 -202.40625 L 131.734375 -130.21875 L 175.34375 -202.40625 C 178.34375 -207.820312 182.648438 -210.53125 188.265625 -210.53125 Z M 188.265625 -210.53125 "/></g></g></g><g fill="#000000" fill-opacity="1"><g transform="translate(732.185867, 283.249259)"><g><path d="M 91.734375 -58.640625 L 184.359375 -58.640625 C 186.566406 -58.640625 188.472656 -57.835938 190.078125 -56.234375 C 191.679688 -54.628906 192.484375 -52.726562 192.484375 -50.53125 L 192.484375 -8.125 C 192.484375 -5.914062 191.679688 -4.007812 190.078125 -2.40625 C 188.472656 -0.800781 186.566406 0 184.359375 0 L 27.671875 0 C 25.460938 0 23.554688 -0.800781 21.953125 -2.40625 C 20.347656 -4.007812 19.546875 -5.914062 19.546875 -8.125 L 19.546875 -202.40625 C 19.546875 -204.613281 20.347656 -206.519531 21.953125 -208.125 C 23.554688 -209.726562 25.460938 -210.53125 27.671875 -210.53125 L 181.953125 -210.53125 C 184.160156 -210.53125 186.066406 -209.726562 187.671875 -208.125 C 189.273438 -206.519531 190.078125 -204.613281 190.078125 -202.40625 L 190.078125 -160 C 190.078125 -157.789062 189.273438 -155.882812 187.671875 -154.28125 C 186.066406 -152.675781 184.160156 -151.875 181.953125 -151.875 L 91.734375 -151.875 L 91.734375 -132.9375 L 175.34375 -132.9375 C 177.539062 -132.9375 179.441406 -132.132812 181.046875 -130.53125 C 182.648438 -128.925781 183.453125 -127.019531 183.453125 -124.8125 L 183.453125 -85.71875 C 183.453125 -83.507812 182.648438 -81.601562 181.046875 -80 C 179.441406 -78.394531 177.539062 -77.59375 175.34375 -77.59375 L 91.734375 -77.59375 Z M 91.734375 -58.640625 "/></g></g></g></g></g><g transform="matrix(1, 0, 0, 1, 252, 641)"><g clip-path="url(#92dbc14fd3)"><g fill="#000000" fill-opacity="1"><g transform="translate(2.212541, 92.765906)"><g><path d="M 50.640625 0 L 37.71875 -18.671875 L 23.453125 -18.671875 L 23.453125 0 L 7.9375 0 L 7.9375 -67 L 36.953125 -67 C 42.878906 -67 48.03125 -66.007812 52.40625 -64.03125 C 56.78125 -62.050781 60.144531 -59.242188 62.5 -55.609375 C 64.863281 -51.972656 66.046875 -47.664062 66.046875 -42.6875 C 66.046875 -37.707031 64.847656 -33.414062 62.453125 -29.8125 C 60.054688 -26.207031 56.660156 -23.445312 52.265625 -21.53125 L 67.296875 0 Z M 50.34375 -42.6875 C 50.34375 -46.457031 49.128906 -49.347656 46.703125 -51.359375 C 44.285156 -53.367188 40.75 -54.375 36.09375 -54.375 L 23.453125 -54.375 L 23.453125 -31.015625 L 36.09375 -31.015625 C 40.75 -31.015625 44.285156 -32.035156 46.703125 -34.078125 C 49.128906 -36.117188 50.34375 -38.988281 50.34375 -42.6875 Z M 50.34375 -42.6875 "/></g></g></g><g fill="#000000" fill-opacity="1"><g transform="translate(104.314549, 92.765906)"><g><path d="M 59.828125 -12.4375 L 59.828125 0 L 7.9375 0 L 7.9375 -67 L 58.578125 -67 L 58.578125 -54.5625 L 23.359375 -54.5625 L 23.359375 -40.015625 L 54.46875 -40.015625 L 54.46875 -27.953125 L 23.359375 -27.953125 L 23.359375 -12.4375 Z M 59.828125 -12.4375 "/></g></g></g><g fill="#000000" fill-opacity="1"><g transform="translate(200.293182, 92.765906)"><g><path d="M 52.078125 -14.359375 L 20.96875 -14.359375 L 15.03125 0 L -0.859375 0 L 29 -67 L 44.3125 -67 L 74.28125 0 L 58 0 Z M 47.1875 -26.125 L 36.5625 -51.78125 L 25.9375 -26.125 Z M 47.1875 -26.125 "/></g></g></g><g fill="#000000" fill-opacity="1"><g transform="translate(305.361158, 92.765906)"><g><path d="M 7.9375 -67 L 23.453125 -67 L 23.453125 -12.640625 L 57.046875 -12.640625 L 57.046875 0 L 7.9375 0 Z M 7.9375 -67 "/></g></g></g><g fill="#000000" fill-opacity="1"><g transform="translate(394.929344, 92.765906)"><g/></g></g><g fill="#000000" fill-opacity="1"><g transform="translate(453.785024, 92.765906)"><g><path d="M 59.828125 -12.4375 L 59.828125 0 L 7.9375 0 L 7.9375 -67 L 58.578125 -67 L 58.578125 -54.5625 L 23.359375 -54.5625 L 23.359375 -40.015625 L 54.46875 -40.015625 L 54.46875 -27.953125 L 23.359375 -27.953125 L 23.359375 -12.4375 Z M 59.828125 -12.4375 "/></g></g></g><g fill="#000000" fill-opacity="1"><g transform="translate(549.763657, 92.765906)"><g><path d="M 29.953125 1.15625 C 24.660156 1.15625 19.539062 0.4375 14.59375 -1 C 9.644531 -2.4375 5.675781 -4.304688 2.6875 -6.609375 L 7.9375 -18.28125 C 10.8125 -16.175781 14.226562 -14.484375 18.1875 -13.203125 C 22.144531 -11.929688 26.101562 -11.296875 30.0625 -11.296875 C 34.457031 -11.296875 37.707031 -11.945312 39.8125 -13.25 C 41.925781 -14.5625 42.984375 -16.300781 42.984375 -18.46875 C 42.984375 -20.0625 42.359375 -21.382812 41.109375 -22.4375 C 39.867188 -23.5 38.273438 -24.347656 36.328125 -24.984375 C 34.378906 -25.617188 31.742188 -26.320312 28.421875 -27.09375 C 23.316406 -28.300781 19.132812 -29.507812 15.875 -30.71875 C 12.625 -31.9375 9.832031 -33.882812 7.5 -36.5625 C 5.175781 -39.238281 4.015625 -42.8125 4.015625 -47.28125 C 4.015625 -51.175781 5.066406 -54.703125 7.171875 -57.859375 C 9.285156 -61.015625 12.460938 -63.519531 16.703125 -65.375 C 20.941406 -67.226562 26.125 -68.15625 32.25 -68.15625 C 36.53125 -68.15625 40.710938 -67.644531 44.796875 -66.625 C 48.878906 -65.601562 52.453125 -64.132812 55.515625 -62.21875 L 50.734375 -50.4375 C 44.546875 -53.945312 38.351562 -55.703125 32.15625 -55.703125 C 27.820312 -55.703125 24.617188 -55 22.546875 -53.59375 C 20.472656 -52.195312 19.4375 -50.347656 19.4375 -48.046875 C 19.4375 -45.753906 20.628906 -44.046875 23.015625 -42.921875 C 25.410156 -41.804688 29.066406 -40.707031 33.984375 -39.625 C 39.085938 -38.414062 43.265625 -37.203125 46.515625 -35.984375 C 49.773438 -34.773438 52.566406 -32.863281 54.890625 -30.25 C 57.222656 -27.632812 58.390625 -24.09375 58.390625 -19.625 C 58.390625 -15.789062 57.316406 -12.296875 55.171875 -9.140625 C 53.035156 -5.984375 49.832031 -3.476562 45.5625 -1.625 C 41.289062 0.226562 36.085938 1.15625 29.953125 1.15625 Z M 29.953125 1.15625 "/></g></g></g><g fill="#000000" fill-opacity="1"><g transform="translate(642.584886, 92.765906)"><g><path d="M 21.828125 -54.375 L 0.390625 -54.375 L 0.390625 -67 L 58.765625 -67 L 58.765625 -54.375 L 37.328125 -54.375 L 37.328125 0 L 21.828125 0 Z M 21.828125 -54.375 "/></g></g></g><g fill="#000000" fill-opacity="1"><g transform="translate(733.492577, 92.765906)"><g><path d="M 52.078125 -14.359375 L 20.96875 -14.359375 L 15.03125 0 L -0.859375 0 L 29 -67 L 44.3125 -67 L 74.28125 0 L 58 0 Z M 47.1875 -26.125 L 36.5625 -51.78125 L 25.9375 -26.125 Z M 47.1875 -26.125 "/></g></g></g><g fill="#000000" fill-opacity="1"><g transform="translate(838.560553, 92.765906)"><g><path d="M 21.828125 -54.375 L 0.390625 -54.375 L 0.390625 -67 L 58.765625 -67 L 58.765625 -54.375 L 37.328125 -54.375 L 37.328125 0 L 21.828125 0 Z M 21.828125 -54.375 "/></g></g></g><g fill="#000000" fill-opacity="1"><g transform="translate(929.468245, 92.765906)"><g><path d="M 59.828125 -12.4375 L 59.828125 0 L 7.9375 0 L 7.9375 -67 L 58.578125 -67 L 58.578125 -54.5625 L 23.359375 -54.5625 L 23.359375 -40.015625 L 54.46875 -40.015625 L 54.46875 -27.953125 L 23.359375 -27.953125 L 23.359375 -12.4375 Z M 59.828125 -12.4375 "/></g></g></g></g></g></svg>